<?xml version="1.0" encoding="iso-8859-1"?>
<!-- Uploaded to: SVG Repo, www.svgrepo.com, Generator: SVG Repo Mixer Tools -->
<svg height="800px" width="800px" version="1.1" id="Layer_1" xmlns="http://www.w3.org/2000/svg" xmlns:xlink="http://www.w3.org/1999/xlink" 
	 viewBox="0 0 512 512" xml:space="preserve">
<polygon style="fill:#FFF3E6;" points="394.547,500.705 355.127,500.705 355.127,11.295 394.547,11.295 431.64,11.295 
	431.64,500.705 "/>
<g>
	<path style="fill:#FB7B76;" d="M355.127,11.295v489.41H80.36V11.295H355.127z M235.612,284.255v-5.681
		c0-11.194-9.081-20.264-20.264-20.264c11.182,0,20.264-9.07,20.264-20.264v-5.693c0-11.182-9.081-20.252-20.264-20.252h-29.492
		v46.209v46.209h29.492C226.531,304.519,235.612,295.448,235.612,284.255z"/>
	<path style="fill:#FB7B76;" d="M235.612,278.573v5.681c0,11.194-9.081,20.264-20.264,20.264h-29.492V258.31h29.492
		C226.531,258.31,235.612,267.38,235.612,278.573z"/>
	<path style="fill:#FB7B76;" d="M235.612,232.354v5.693c0,11.194-9.081,20.264-20.264,20.264h-29.492v-46.209h29.492
		C226.531,212.101,235.612,221.171,235.612,232.354z"/>
</g>
<path d="M80.36,512H431.64c6.237,0,11.295-5.057,11.295-11.295V11.295C442.936,5.057,437.878,0,431.64,0H80.36
	c-6.237,0-11.295,5.057-11.295,11.295v489.41C69.064,506.943,74.122,512,80.36,512z M420.345,489.41h-14.503V375.712
	c0-6.238-5.058-11.295-11.295-11.295s-11.295,5.057-11.295,11.295V489.41h-16.83V22.59h16.83v64.631
	c0,6.238,5.058,11.295,11.295,11.295s11.295-5.057,11.295-11.295V22.59h14.503V489.41z M91.655,22.59h252.177V489.41H91.655V22.59z"
	/>
<path d="M257.263,160.472l-35.998-92.429c-0.028-0.073-0.066-0.14-0.095-0.212c-0.076-0.184-0.159-0.365-0.245-0.544
	c-0.077-0.163-0.155-0.324-0.239-0.481c-0.086-0.16-0.18-0.317-0.273-0.474c-0.098-0.164-0.197-0.328-0.303-0.485
	c-0.096-0.143-0.199-0.281-0.302-0.42c-0.115-0.156-0.23-0.313-0.354-0.462c-0.112-0.136-0.23-0.265-0.349-0.396
	c-0.125-0.139-0.25-0.277-0.381-0.409c-0.132-0.132-0.272-0.258-0.412-0.384c-0.13-0.117-0.259-0.236-0.393-0.347
	c-0.15-0.123-0.306-0.238-0.463-0.355c-0.139-0.103-0.277-0.206-0.419-0.302c-0.157-0.106-0.321-0.203-0.485-0.302
	c-0.157-0.095-0.314-0.188-0.476-0.274c-0.156-0.084-0.315-0.16-0.476-0.237c-0.183-0.087-0.367-0.172-0.555-0.25
	c-0.07-0.029-0.136-0.064-0.206-0.093c-0.088-0.034-0.176-0.056-0.264-0.088c-0.192-0.07-0.386-0.134-0.582-0.194
	c-0.169-0.051-0.339-0.098-0.509-0.141c-0.182-0.046-0.365-0.086-0.549-0.123c-0.184-0.037-0.368-0.07-0.553-0.097
	c-0.175-0.026-0.351-0.046-0.529-0.063c-0.191-0.019-0.382-0.035-0.573-0.044c-0.175-0.009-0.35-0.01-0.526-0.011
	c-0.192,0-0.383,0.002-0.574,0.011c-0.176,0.009-0.351,0.024-0.527,0.041c-0.192,0.019-0.382,0.041-0.572,0.069
	c-0.172,0.026-0.343,0.056-0.515,0.09c-0.195,0.038-0.39,0.081-0.583,0.13c-0.162,0.041-0.323,0.086-0.485,0.134
	c-0.202,0.061-0.401,0.128-0.599,0.199c-0.086,0.032-0.173,0.053-0.259,0.086c-0.07,0.027-0.134,0.062-0.203,0.091
	c-0.19,0.078-0.376,0.164-0.561,0.252c-0.159,0.076-0.317,0.152-0.471,0.235c-0.163,0.087-0.321,0.181-0.479,0.276
	c-0.164,0.098-0.326,0.197-0.483,0.302c-0.142,0.095-0.28,0.198-0.418,0.3c-0.157,0.116-0.315,0.233-0.465,0.357
	c-0.133,0.11-0.261,0.227-0.389,0.342c-0.141,0.128-0.284,0.255-0.417,0.39c-0.129,0.129-0.251,0.264-0.373,0.4
	c-0.121,0.134-0.244,0.267-0.358,0.405c-0.12,0.146-0.232,0.298-0.344,0.45c-0.106,0.143-0.212,0.286-0.312,0.434
	c-0.103,0.152-0.198,0.312-0.293,0.47c-0.097,0.163-0.194,0.324-0.284,0.491c-0.081,0.151-0.156,0.306-0.23,0.462
	c-0.089,0.188-0.176,0.376-0.255,0.568c-0.028,0.069-0.063,0.132-0.09,0.201l-36.009,92.429c-2.265,5.813,0.611,12.36,6.425,14.625
	c1.346,0.525,2.733,0.774,4.097,0.774c4.52,0,8.788-2.732,10.527-7.198l4.765-12.233h41.427l4.764,12.232
	c1.739,4.466,6.007,7.2,10.527,7.2c1.363,0,2.75-0.249,4.097-0.773C256.649,172.832,259.526,166.285,257.263,160.472z
	 M198.821,133.848l11.916-30.586l11.913,30.586H198.821z"/>
<path d="M246.907,232.354c0-17.396-14.157-31.547-31.559-31.547h-29.491c-6.237,0-11.295,5.057-11.295,11.295v46.209v46.209
	c0,6.238,5.058,11.295,11.295,11.295h29.491c17.401,0,31.559-14.157,31.559-31.559v-5.681c0-7.709-2.782-14.778-7.389-20.264
	c4.607-5.486,7.389-12.555,7.389-20.264V232.354z M215.349,223.396c4.945,0,8.968,4.019,8.968,8.957v5.693
	c0,4.945-4.024,8.968-8.968,8.968h-18.195v-23.618L215.349,223.396L215.349,223.396z M224.317,284.255
	c0,4.945-4.024,8.968-8.968,8.968h-18.195v-23.618h18.195c4.945,0,8.968,4.023,8.968,8.968V284.255z"/>
<path d="M210.74,363.344c7.817,0,14.177,6.364,14.177,14.187c0,6.238,5.058,11.295,11.295,11.295s11.295-5.057,11.295-11.295
	c0-20.279-16.494-36.777-36.767-36.777c-20.278,0-36.777,16.498-36.777,36.777v41.453c0,20.279,16.498,36.777,36.777,36.777
	c20.273,0,36.767-16.498,36.767-36.777c0-6.238-5.058-11.295-11.295-11.295s-11.295,5.057-11.295,11.295
	c0,7.823-6.359,14.187-14.177,14.187c-7.823,0-14.187-6.364-14.187-14.187v-41.453C196.553,369.708,202.917,363.344,210.74,363.344z
	"/>
<path d="M394.547,302.124c-6.237,0-11.295,5.057-11.295,11.295v19.405c0,6.238,5.058,11.295,11.295,11.295
	s11.295-5.057,11.295-11.295v-19.405C405.842,307.181,400.785,302.124,394.547,302.124z"/>
</svg>